<svg xmlns="http://www.w3.org/2000/svg" width="32" height="48" fill="none" viewBox="0 0 32 48" aria-label="Figma"><path fill="#00B6FF" d="M16 23.059A7.06 7.06 0 0 1 23.06 16H24a8 8 0 1 1 0 16h-.941A7.06 7.06 0 0 1 16 24.941z"></path><path fill="#24CB71" d="M0 40a8 8 0 0 1 8-8h8v8a8 8 0 1 1-16 0"></path><path fill="#FF7237" d="M16 0v16h8a8 8 0 1 0 0-16z"></path><path fill="#FF3737" d="M0 8a8 8 0 0 0 8 8h8V0H8a8 8 0 0 0-8 8"></path><path fill="#874FFF" d="M0 24a8 8 0 0 0 8 8h8V16H8a8 8 0 0 0-8 8"></path></svg>
